<?xml version="1.0" encoding="UTF-8"?>
<svg width="877px" height="303px" viewBox="0 0 877 303" version="1.1" xmlns="http://www.w3.org/2000/svg" xmlns:xlink="http://www.w3.org/1999/xlink">
    <!-- Generator: Sketch 58 (84663) - https://sketch.com -->
    <title>Alexandria’sRevenge</title>
    <desc>Created with Sketch.</desc>
    <g id="Page-1" stroke="none" stroke-width="1" fill="none" fill-rule="evenodd">
        <g id="Desktop-HD" transform="translate(-148.000000, -209.000000)" fill="#FFFFFF" fill-rule="nonzero">
            <path d="M223.25,322.7 L202.85,227 L187.55,227 L187.55,231.8 C173.75,259.4 162.05,291.5 157.85,322.85 L148.1,324.35 L148.1,332 L182.6,332 L182.6,324.35 L174.2,323 C174.95,317.15 175.7,311.3 176.75,305.45 L201.95,305.45 L205.25,323.15 L197.45,324.35 L197.45,332 L233.15,332 L233.15,324.35 L223.25,322.7 Z M178.55,295.7 C181.85,280.25 186.2,264.95 191.9,250.55 L200.15,295.7 L178.55,295.7 Z M298.1,300.5 L288.05,300.5 L286.1,322.25 L264.8,322.25 L264.8,236.3 L272.6,234.65 L272.6,227 L238.1,227 L238.1,234.65 L247.55,236.15 L247.55,322.85 L238.1,324.35 L238.1,332 L299.3,332 L298.1,300.5 Z M361.1,298.4 L353.15,298.4 L353.15,306.95 C352.7,314 345.65,322.1 339.95,322.1 L339.05,322.1 C337.1,312.65 333.05,306.35 327.2,301.85 L327.2,281.9 L360.05,282.35 L360.05,270.8 L327.2,271.1 L327.2,254.15 C327.2,244.4 333.2,235.1 339.8,235.1 C345.65,235.85 351.35,243.05 353.75,248.75 L353.75,258.2 L360.8,258.2 L370.55,245.75 C365.6,233.75 355.7,227.45 345.2,225.2 L340.1,225.2 C326.6,225.2 309.95,242.9 309.95,256.85 L309.95,307.55 C317,311 321.5,314.9 323.75,322.7 L314.75,323.9 L314.75,332 L341.6,332 C355.85,332 369.95,321.35 370.85,303.35 L361.1,298.4 Z M447.2,321.8 L424.85,276.35 L435.95,254.9 C438.35,250.1 440.75,245.45 443.45,240.5 L445.247295,240.58272 C447.935124,240.709504 450.568182,240.854545 452.9,241.1 L455.9,228.05 C450.05,227.15 438.05,226.55 432.65,226.55 L432.151485,227.686994 C430.382444,231.766815 427.913333,237.85 423.95,246.05 L416,262.7 L403.1,236.9 L411.05,235.85 L411.05,227 L375.05,227 L375.05,235.85 L384.95,237.2 L406.25,280.1 L385.25,321.65 L373.55,323.15 L373.55,332 L407,332 L407,323.15 L399.35,322.4 L414.65,293.45 L428.75,322.1 L420.65,323.15 L420.65,332 L457.1,332 L457.1,323.15 L447.2,321.8 Z M532.1,322.7 L511.7,227 L496.4,227 L496.4,231.8 C482.6,259.4 470.9,291.5 466.7,322.85 L456.95,324.35 L456.95,332 L491.45,332 L491.45,324.35 L483.05,323 L483.553292,319.1 C484.148148,314.55 484.783333,310 485.6,305.45 L510.8,305.45 L514.1,323.15 L506.3,324.35 L506.3,332 L542,332 L542,324.35 L532.1,322.7 Z M487.4,295.7 C490.7,280.25 495.05,264.95 500.75,250.55 L509,295.7 L487.4,295.7 Z M625.1,234.65 L625.1,227 L590.6,227 L590.6,234.65 L598.4,236.15 L598.4,282.95 C591.2,272.45 582.2,261.5 573.65,252.65 L573.65,236.3 L581.45,234.65 L581.45,227 L546.95,227 L546.95,234.65 L556.4,236.15 L556.4,322.7 L546.95,324.2 L546.95,332 L581.45,332 L581.45,324.2 L573.65,322.7 L573.65,267.95 C581.9,277.55 591.2,289.7 598.4,300.8 L598.4,322.85 L590.6,324.35 L590.6,332 L625.1,332 L625.1,324.35 L615.65,322.85 L615.65,236.15 L625.1,234.65 Z M680.15,227 L636.8,227 L636.8,234.65 L646.85,236.15 L646.85,322.85 L636.8,324.35 L636.8,332 L677.15,332 C693.05,332 706.7,321.5 706.7,304.7 L706.7,254.75 C704,239.15 694.1,229.4 680.15,227 Z M689.45,307.55 C689.45,316.7 682.4,322.25 677.75,322.25 L664.1,322.25 L664.1,236.75 L675.05,236.75 C682.85,237.5 688.1,249.05 689.45,258.5 L689.45,307.55 Z M787.55,322.85 C787.25,305.15 779.3,289.55 769.4,276.05 C778.85,269.3 783.35,260 783.35,248.3 C783.35,241.25 781.4,233.75 777.65,227 L719,227 L719,234.65 L728.9,236.15 L728.9,322.85 L719,324.35 L719,332 L754.25,332 L754.25,324.35 L746.3,322.85 L746.3,285.35 C750.05,284.6 753.5,283.55 756.65,282.35 C764.15,290.9 769.85,305.45 770.3,322.85 L762.95,324.35 L762.95,332 L796.25,332 L796.25,324.2 L787.55,322.85 Z M746.3,236.75 L764.75,236.75 C765.8,240.95 766.1,245 766.1,249.05 C766.1,261.35 758.9,270.05 746.3,274.55 L746.3,236.75 Z M839.9,234.65 L839.9,227 L803.75,227 L803.75,234.65 L813.2,236.15 L813.2,322.85 L803.75,324.35 L803.75,332 L839.9,332 L839.9,324.35 L830.45,322.85 L830.45,236.15 L839.9,234.65 Z M920,322.7 L899.6,227 L884.3,227 L884.3,231.8 C870.5,259.4 858.8,291.5 854.6,322.85 L844.85,324.35 L844.85,332 L879.35,332 L879.35,324.35 L870.95,323 C871.7,317.15 872.45,311.3 873.5,305.45 L898.7,305.45 L902,323.15 L894.2,324.35 L894.2,332 L929.9,332 L929.9,324.35 L920,322.7 Z M875.3,295.7 C878.6,280.25 882.95,264.95 888.65,250.55 L896.9,295.7 L875.3,295.7 Z M933.5,244.55 L939.8,248 C951.8,239.75 960.95,220.4 946.25,209.6 L933.65,221.75 C939.8,226.7 940.4,234.95 933.5,244.55 Z M992.75,333.8 C1010.6,333.8 1024.85,317.75 1024.4,299.9 C1023.95,275.15 981.35,268.55 981.35,251.9 C981.35,242.3 988.1,235.1 994.25,235.1 C998.75,235.7 1003.4,242.15 1006.1,246.5 L1006.25,256.7 L1013.15,256.7 L1022.6,241.85 C1017.35,232.25 1008.95,227.45 1000.4,225.2 L995.45,225.2 C980.9,225.2 963.95,240.5 963.95,255.8 C963.95,280.4 1006.85,287.3 1007,304.1 C1007,315.65 1001.3,323.75 993.65,323.75 C988.1,323.75 981.95,315.5 979.55,309.05 L979.55,300.35 L972.5,300.35 L962.6,311.6 C967.85,325.7 981.5,333.8 992.75,333.8 Z M223.4,502.85 C223.1,485.15 215.15,469.55 205.25,456.05 C214.7,449.3 219.2,440 219.2,428.3 C219.2,421.25 217.25,413.75 213.5,407 L154.85,407 L154.85,414.65 L164.75,416.15 L164.75,502.85 L154.85,504.35 L154.85,512 L190.1,512 L190.1,504.35 L182.15,502.85 L182.15,465.35 C185.9,464.6 189.35,463.55 192.5,462.35 C200,470.9 205.7,485.45 206.15,502.85 L198.8,504.35 L198.8,512 L232.1,512 L232.1,504.2 L223.4,502.85 Z M182.15,416.75 L200.6,416.75 C201.65,420.95 201.95,425 201.95,429.05 C201.95,441.35 194.75,450.05 182.15,454.55 L182.15,416.75 Z M291.95,478.4 L284,478.4 L284,486.95 C283.55,494 276.5,502.1 270.8,502.1 L269.9,502.1 C267.95,492.65 263.9,486.35 258.05,481.85 L258.05,461.9 L290.9,462.35 L290.9,450.8 L258.05,451.1 L258.05,434.15 C258.05,424.4 264.05,415.1 270.65,415.1 C276.5,415.85 282.2,423.05 284.6,428.75 L284.6,438.2 L291.65,438.2 L301.4,425.75 C296.45,413.75 286.55,407.45 276.05,405.2 L270.95,405.2 C257.45,405.2 240.8,422.9 240.8,436.85 L240.8,487.55 C247.85,491 252.35,494.9 254.6,502.7 L245.6,503.9 L245.6,512 L272.45,512 C286.7,512 300.8,501.35 301.7,483.35 L291.95,478.4 Z M398.75,408.05 C392.9,407.15 380.9,406.55 375.5,406.55 L375.147032,407.721375 C373.88595,411.848347 371.790909,418.195455 369.2,426.65 L366.746746,434.836299 C362.079882,450.473373 356.553846,469.365385 351.35,488.15 L337.25,416.45 L344,415.7 L344,407 L309.2,407 L309.2,415.85 L319.25,417.05 L340.85,512 L356.15,512 L363.209482,491.978431 C369.84105,473.10318 376.826923,452.853846 381.65,436.85 C383.3,431.3 384.95,426.5 387.2,420.5 L388.833659,420.58272 C391.276033,420.709504 393.663636,420.854545 395.75,421.1 L398.75,408.05 Z M458,478.4 L450.05,478.4 L450.05,486.95 C449.6,494 442.55,502.1 436.85,502.1 L435.95,502.1 C434,492.65 429.95,486.35 424.1,481.85 L424.1,461.9 L456.95,462.35 L456.95,450.8 L424.1,451.1 L424.1,434.15 C424.1,424.4 430.1,415.1 436.7,415.1 C442.55,415.85 448.25,423.05 450.65,428.75 L450.65,438.2 L457.7,438.2 L467.45,425.75 C462.5,413.75 452.6,407.45 442.1,405.2 L437,405.2 C423.5,405.2 406.85,422.9 406.85,436.85 L406.85,487.55 C413.9,491 418.4,494.9 420.65,502.7 L411.65,503.9 L411.65,512 L438.5,512 C452.75,512 466.85,501.35 467.75,483.35 L458,478.4 Z M554.75,414.65 L554.75,407 L520.25,407 L520.25,414.65 L528.05,416.15 L528.05,462.95 C520.85,452.45 511.85,441.5 503.3,432.65 L503.3,416.3 L511.1,414.65 L511.1,407 L476.6,407 L476.6,414.65 L486.05,416.15 L486.05,502.7 L476.6,504.2 L476.6,512 L511.1,512 L511.1,504.2 L503.3,502.7 L503.3,447.95 C511.55,457.55 520.85,469.7 528.05,480.8 L528.05,502.85 L520.25,504.35 L520.25,512 L554.75,512 L554.75,504.35 L545.3,502.85 L545.3,416.15 L554.75,414.65 Z M600.05,457.1 L600.05,463.7 L611,466.7 L611,488.75 C611,497.3 604.55,502.25 599.15,502.25 L596.45,502.25 C594.5,492.65 590.45,486.35 584.6,481.7 L584.6,435.35 C584.6,424.7 591.05,414.95 597.8,414.95 C603.35,416.15 608.15,422.6 611.45,428 L611.45,438.65 L618.5,438.65 L627.65,426.35 C623.15,414.35 614.3,407.6 602.75,405.2 L598.1,405.2 C584.15,405.2 567.35,423.5 567.35,437.75 L567.35,487.7 C574.4,491 578.9,494.9 581.3,502.85 L571.55,504.35 L571.55,512 L598.85,512 C614.9,512 628.25,501.65 628.25,484.7 L628.25,457.1 L600.05,457.1 Z M691.25,478.4 L701,483.35 C700.1,501.35 686,512 671.75,512 L644.9,512 L644.9,503.9 L653.9,502.7 C651.65,494.9 647.15,491 640.1,487.55 L640.1,436.85 C640.1,422.9 656.75,405.2 670.25,405.2 L675.35,405.2 C685.85,407.45 695.75,413.75 700.7,425.75 L690.95,438.2 L683.9,438.2 L683.9,428.75 C681.5,423.05 675.8,415.85 669.95,415.1 C663.35,415.1 657.35,424.4 657.35,434.15 L657.35,451.1 L690.2,450.8 L690.2,462.35 L657.35,461.9 L657.35,481.85 C663.2,486.35 667.25,492.65 669.2,502.1 L670.1,502.1 C675.8,502.1 682.85,494 683.3,486.95 L683.3,478.4 L691.25,478.4 Z" id="Alexandria’sRevenge"></path>
        </g>
    </g>
</svg>