<?xml version="1.0" encoding="UTF-8"?>
<svg width="877px" height="303px" viewBox="0 0 877 303" version="1.1" xmlns="http://www.w3.org/2000/svg" xmlns:xlink="http://www.w3.org/1999/xlink">
    <!-- Generator: Sketch 58 (84663) - https://sketch.com -->
    <title>Alexandria’sRevenge</title>
    <desc>Created with Sketch.</desc>
    <g id="Page-1" stroke="none" stroke-width="1" fill="none" fill-rule="evenodd">
        <g id="Desktop-HD" transform="translate(-279.000000, -123.000000)" fill="#000000" fill-rule="nonzero">
            <g id="Group" transform="translate(0.000000, -140.000000)">
                <path d="M354.6,376.7 L334.2,281 L318.9,281 L318.9,285.8 C305.1,313.4 293.4,345.5 289.2,376.85 L279.45,378.35 L279.45,386 L313.95,386 L313.95,378.35 L305.55,377 L306.053292,373.1 C306.648148,368.55 307.283333,364 308.1,359.45 L333.3,359.45 L336.6,377.15 L328.8,378.35 L328.8,386 L364.5,386 L364.5,378.35 L354.6,376.7 Z M309.9,349.7 C313.2,334.25 317.55,318.95 323.25,304.55 L331.5,349.7 L309.9,349.7 Z M429.45,354.5 L419.4,354.5 L417.45,376.25 L396.15,376.25 L396.15,290.3 L403.95,288.65 L403.95,281 L369.45,281 L369.45,288.65 L378.9,290.15 L378.9,376.85 L369.45,378.35 L369.45,386 L430.65,386 L429.45,354.5 Z M492.45,352.4 L484.5,352.4 L484.5,360.95 C484.05,368 477,376.1 471.3,376.1 L470.4,376.1 C468.45,366.65 464.4,360.35 458.55,355.85 L458.55,335.9 L491.4,336.35 L491.4,324.8 L458.55,325.1 L458.55,308.15 C458.55,298.4 464.55,289.1 471.15,289.1 C477,289.85 482.7,297.05 485.1,302.75 L485.1,312.2 L492.15,312.2 L501.9,299.75 C496.95,287.75 487.05,281.45 476.55,279.2 L471.45,279.2 C457.95,279.2 441.3,296.9 441.3,310.85 L441.3,361.55 C448.35,365 452.85,368.9 455.1,376.7 L446.1,377.9 L446.1,386 L472.95,386 C487.2,386 501.3,375.35 502.2,357.35 L492.45,352.4 Z M578.55,375.8 L556.2,330.35 L567.3,308.9 C569.7,304.1 572.1,299.45 574.8,294.5 L576.597295,294.58272 C579.285124,294.709504 581.918182,294.854545 584.25,295.1 L587.25,282.05 C581.4,281.15 569.4,280.55 564,280.55 L563.501485,281.686994 C561.732444,285.766815 559.263333,291.85 555.3,300.05 L547.35,316.7 L534.45,290.9 L542.4,289.85 L542.4,281 L506.4,281 L506.4,289.85 L516.3,291.2 L537.6,334.1 L516.6,375.65 L504.9,377.15 L504.9,386 L538.35,386 L538.35,377.15 L530.7,376.4 L546,347.45 L560.1,376.1 L552,377.15 L552,386 L588.45,386 L588.45,377.15 L578.55,375.8 Z M663.45,376.7 L643.05,281 L627.75,281 L627.75,285.8 C613.95,313.4 602.25,345.5 598.05,376.85 L588.3,378.35 L588.3,386 L622.8,386 L622.8,378.35 L614.4,377 L614.903292,373.1 C615.498148,368.55 616.133333,364 616.95,359.45 L642.15,359.45 L645.45,377.15 L637.65,378.35 L637.65,386 L673.35,386 L673.35,378.35 L663.45,376.7 Z M618.75,349.7 C622.05,334.25 626.4,318.95 632.1,304.55 L640.35,349.7 L618.75,349.7 Z M756.45,288.65 L756.45,281 L721.95,281 L721.95,288.65 L729.75,290.15 L729.75,336.95 C722.55,326.45 713.55,315.5 705,306.65 L705,290.3 L712.8,288.65 L712.8,281 L678.3,281 L678.3,288.65 L687.75,290.15 L687.75,376.7 L678.3,378.2 L678.3,386 L712.8,386 L712.8,378.2 L705,376.7 L705,321.95 C713.25,331.55 722.55,343.7 729.75,354.8 L729.75,376.85 L721.95,378.35 L721.95,386 L756.45,386 L756.45,378.35 L747,376.85 L747,290.15 L756.45,288.65 Z M811.5,281 L768.15,281 L768.15,288.65 L778.2,290.15 L778.2,376.85 L768.15,378.35 L768.15,386 L808.5,386 C824.4,386 838.05,375.5 838.05,358.7 L838.05,308.75 C835.35,293.15 825.45,283.4 811.5,281 Z M820.8,361.55 C820.8,370.7 813.75,376.25 809.1,376.25 L795.45,376.25 L795.45,290.75 L806.4,290.75 C814.2,291.5 819.45,303.05 820.8,312.5 L820.8,361.55 Z M918.9,376.85 C918.6,359.15 910.65,343.55 900.75,330.05 C910.2,323.3 914.7,314 914.7,302.3 C914.7,295.25 912.75,287.75 909,281 L850.35,281 L850.35,288.65 L860.25,290.15 L860.25,376.85 L850.35,378.35 L850.35,386 L885.6,386 L885.6,378.35 L877.65,376.85 L877.65,339.35 C881.4,338.6 884.85,337.55 888,336.35 C895.5,344.9 901.2,359.45 901.65,376.85 L894.3,378.35 L894.3,386 L927.6,386 L927.6,378.2 L918.9,376.85 Z M877.65,290.75 L896.1,290.75 C897.15,294.95 897.45,299 897.45,303.05 C897.45,315.35 890.25,324.05 877.65,328.55 L877.65,290.75 Z M971.25,288.65 L971.25,281 L935.1,281 L935.1,288.65 L944.55,290.15 L944.55,376.85 L935.1,378.35 L935.1,386 L971.25,386 L971.25,378.35 L961.8,376.85 L961.8,290.15 L971.25,288.65 Z M1051.35,376.7 L1030.95,281 L1015.65,281 L1015.65,285.8 C1001.85,313.4 990.15,345.5 985.95,376.85 L976.2,378.35 L976.2,386 L1010.7,386 L1010.7,378.35 L1002.3,377 C1003.05,371.15 1003.8,365.3 1004.85,359.45 L1030.05,359.45 L1033.35,377.15 L1025.55,378.35 L1025.55,386 L1061.25,386 L1061.25,378.35 L1051.35,376.7 Z M1006.65,349.7 C1009.95,334.25 1014.3,318.95 1020,304.55 L1028.25,349.7 L1006.65,349.7 Z M1064.85,298.55 L1071.15,302 C1083.15,293.75 1092.3,274.4 1077.6,263.6 L1065,275.75 C1071.15,280.7 1071.75,288.95 1064.85,298.55 Z M1124.1,387.8 C1141.95,387.8 1156.2,371.75 1155.75,353.9 C1155.3,329.15 1112.7,322.55 1112.7,305.9 C1112.7,296.3 1119.45,289.1 1125.6,289.1 C1130.1,289.7 1134.75,296.15 1137.45,300.5 L1137.6,310.7 L1144.5,310.7 L1153.95,295.85 C1148.7,286.25 1140.3,281.45 1131.75,279.2 L1126.8,279.2 C1112.25,279.2 1095.3,294.5 1095.3,309.8 C1095.3,334.4 1138.2,341.3 1138.35,358.1 C1138.35,369.65 1132.65,377.75 1125,377.75 C1119.45,377.75 1113.3,369.5 1110.9,363.05 L1110.9,354.35 L1103.85,354.35 L1093.95,365.6 C1099.2,379.7 1112.85,387.8 1124.1,387.8 Z M516.9,556.85 C516.6,539.15 508.65,523.55 498.75,510.05 C508.2,503.3 512.7,494 512.7,482.3 C512.7,475.25 510.75,467.75 507,461 L448.35,461 L448.35,468.65 L458.25,470.15 L458.25,556.85 L448.35,558.35 L448.35,566 L483.6,566 L483.6,558.35 L475.65,556.85 L475.65,519.35 C479.4,518.6 482.85,517.55 486,516.35 C493.5,524.9 499.2,539.45 499.65,556.85 L492.3,558.35 L492.3,566 L525.6,566 L525.6,558.2 L516.9,556.85 Z M475.65,470.75 L494.1,470.75 C495.15,474.95 495.45,479 495.45,483.05 C495.45,495.35 488.25,504.05 475.65,508.55 L475.65,470.75 Z M585.45,532.4 L577.5,532.4 L577.5,540.95 C577.05,548 570,556.1 564.3,556.1 L563.4,556.1 C561.45,546.65 557.4,540.35 551.55,535.85 L551.55,515.9 L584.4,516.35 L584.4,504.8 L551.55,505.1 L551.55,488.15 C551.55,478.4 557.55,469.1 564.15,469.1 C570,469.85 575.7,477.05 578.1,482.75 L578.1,492.2 L585.15,492.2 L594.9,479.75 C589.95,467.75 580.05,461.45 569.55,459.2 L564.45,459.2 C550.95,459.2 534.3,476.9 534.3,490.85 L534.3,541.55 C541.35,545 545.85,548.9 548.1,556.7 L539.1,557.9 L539.1,566 L565.95,566 C580.2,566 594.3,555.35 595.2,537.35 L585.45,532.4 Z M692.25,462.05 C686.4,461.15 674.4,460.55 669,460.55 L668.647032,461.721375 C667.38595,465.848347 665.290909,472.195455 662.7,480.65 L660.246746,488.836299 C655.579882,504.473373 650.053846,523.365385 644.85,542.15 L630.75,470.45 L637.5,469.7 L637.5,461 L602.7,461 L602.7,469.85 L612.75,471.05 L634.35,566 L649.65,566 L656.709482,545.978431 C663.34105,527.10318 670.326923,506.853846 675.15,490.85 C676.8,485.3 678.45,480.5 680.7,474.5 L682.333659,474.58272 C684.776033,474.709504 687.163636,474.854545 689.25,475.1 L692.25,462.05 Z M751.5,532.4 L743.55,532.4 L743.55,540.95 C743.1,548 736.05,556.1 730.35,556.1 L729.45,556.1 C727.5,546.65 723.45,540.35 717.6,535.85 L717.6,515.9 L750.45,516.35 L750.45,504.8 L717.6,505.1 L717.6,488.15 C717.6,478.4 723.6,469.1 730.2,469.1 C736.05,469.85 741.75,477.05 744.15,482.75 L744.15,492.2 L751.2,492.2 L760.95,479.75 C756,467.75 746.1,461.45 735.6,459.2 L730.5,459.2 C717,459.2 700.35,476.9 700.35,490.85 L700.35,541.55 C707.4,545 711.9,548.9 714.15,556.7 L705.15,557.9 L705.15,566 L732,566 C746.25,566 760.35,555.35 761.25,537.35 L751.5,532.4 Z M848.25,468.65 L848.25,461 L813.75,461 L813.75,468.65 L821.55,470.15 L821.55,516.95 C814.35,506.45 805.35,495.5 796.8,486.65 L796.8,470.3 L804.6,468.65 L804.6,461 L770.1,461 L770.1,468.65 L779.55,470.15 L779.55,556.7 L770.1,558.2 L770.1,566 L804.6,566 L804.6,558.2 L796.8,556.7 L796.8,501.95 C805.05,511.55 814.35,523.7 821.55,534.8 L821.55,556.85 L813.75,558.35 L813.75,566 L848.25,566 L848.25,558.35 L838.8,556.85 L838.8,470.15 L848.25,468.65 Z M893.55,511.1 L893.55,517.7 L904.5,520.7 L904.5,542.75 C904.5,551.3 898.05,556.25 892.65,556.25 L889.95,556.25 C888,546.65 883.95,540.35 878.1,535.7 L878.1,489.35 C878.1,478.7 884.55,468.95 891.3,468.95 C896.85,470.15 901.65,476.6 904.95,482 L904.95,492.65 L912,492.65 L921.15,480.35 C916.65,468.35 907.8,461.6 896.25,459.2 L891.6,459.2 C877.65,459.2 860.85,477.5 860.85,491.75 L860.85,541.7 C867.9,545 872.4,548.9 874.8,556.85 L865.05,558.35 L865.05,566 L892.35,566 C908.4,566 921.75,555.65 921.75,538.7 L921.75,511.1 L893.55,511.1 Z M984.75,532.4 L994.5,537.35 C993.6,555.35 979.5,566 965.25,566 L938.4,566 L938.4,557.9 L947.4,556.7 C945.15,548.9 940.65,545 933.6,541.55 L933.6,490.85 C933.6,476.9 950.25,459.2 963.75,459.2 L968.85,459.2 C979.35,461.45 989.25,467.75 994.2,479.75 L984.45,492.2 L977.4,492.2 L977.4,482.75 C975,477.05 969.3,469.85 963.45,469.1 C956.85,469.1 950.85,478.4 950.85,488.15 L950.85,505.1 L983.7,504.8 L983.7,516.35 L950.85,515.9 L950.85,535.85 C956.7,540.35 960.75,546.65 962.7,556.1 L963.6,556.1 C969.3,556.1 976.35,548 976.8,540.95 L976.8,532.4 L984.75,532.4 Z" id="Alexandria’sRevenge"></path>
            </g>
        </g>
    </g>
</svg>